<?xml version="1.0" ?><svg style="enable-background:new 0 0 48 48;" version="1.1" viewBox="0 0 48 48" xml:space="preserve" xmlns="http://www.w3.org/2000/svg" xmlns:xlink="http://www.w3.org/1999/xlink"><style type="text/css">
	.st0{display:none;}
	.st1{fill:none;stroke:#303030;stroke-width:0.7;stroke-linecap:round;stroke-linejoin:round;stroke-miterlimit:10;}
	.st2{fill:#303030;}
</style><g class="st0" id="Padding__x26__Artboard"/><g id="Icons"><g><g><path class="st1" d="M11.62732,33.86771h24.74536c0.55295,0,1.0012-0.44825,1.0012-1.0012V15.13098     c0-0.55295-0.44825-1.0012-1.0012-1.0012H11.62732c-0.55295,0-1.0012,0.44825-1.0012,1.0012V32.8665     C10.62612,33.41945,11.07437,33.86771,11.62732,33.86771z"/></g><path class="st1" d="M19.53764,28.42808V19.5694c0-0.33947,0.29269-0.56549,0.55065-0.42522l8.14544,4.42934    c0.30485,0.16577,0.30485,0.68467,0,0.85044l-8.14544,4.42934C19.83033,28.99357,19.53764,28.76756,19.53764,28.42808z"/><line class="st1" x1="23.99911" x2="23.99911" y1="33.76034" y2="26.85095"/><line class="st1" x1="23.99911" x2="23.99911" y1="21.12055" y2="14.2251"/><g><g><polyline class="st1" points="19.39026,20.16022 13.16911,20.16022 13.16911,18.04022 21.27911,18.04022 21.27911,19.79022           "/><polyline class="st1" points="19.39026,25.06022 13.16911,25.06022 13.16911,22.94022 19.35993,22.94022     "/><polyline class="st1" points="21.27911,28.20022 21.27911,29.96022 13.16911,29.96022 13.16911,27.83022 19.3405,27.83022           "/></g><g><rect class="st1" height="2.12573" width="8.11103" x="26.72482" y="18.03905"/><polyline class="st1" points="27.152,22.94022 34.8391,22.94022 34.8391,25.06022 27.15692,25.06022     "/><rect class="st1" height="2.12573" width="8.11103" x="26.72482" y="27.83271"/></g></g></g></g></svg>